<?xml version="1.0" encoding="iso-8859-1"?>
<!-- Uploaded to: SVG Repo, www.svgrepo.com, Generator: SVG Repo Mixer Tools -->
<!DOCTYPE svg PUBLIC "-//W3C//DTD SVG 1.1//EN" "http://www.w3.org/Graphics/SVG/1.1/DTD/svg11.dtd">
<svg fill="#32BEA6" version="1.1" id="Capa_1" xmlns="http://www.w3.org/2000/svg" xmlns:xlink="http://www.w3.org/1999/xlink" 
	 width="800px" height="800px" viewBox="0 0 193.004 193.004"
	 xml:space="preserve">
<g>
	<path d="M111.181,114.016c-6.679-34.395-38.188-50.026-70.345-43.935C44.523,50.783,62.59,35.004,74.33,20.336
		c1.665-2.08,2.523-5.738,0-7.698C68.141,7.83,62.365,6.333,57.044,7.092c-0.369-1.01-1.346-1.763-2.615-1.364
		C35.542,11.675,23.311,31.85,15.128,48.57C4.33,70.638-1.087,96.185,0.182,120.707c2.001,38.66,36.518,75.524,77.621,64.791
		C107.81,177.663,116.327,140.518,111.181,114.016z M34.275,144.952c0.003-0.013,0.011-0.021,0.014-0.033
		c0.188-0.725,0.349-1.457,0.52-2.188c0.556,0.718,1.061,1.515,1.507,2.382c-0.705,0.092-1.391,0.151-2.047,0.165
		C34.265,145.164,34.279,145.062,34.275,144.952z M25.581,54.226c0.496,0.212,1.022,0.346,1.57,0.397
		c-1.606,3.22-3.087,6.496-4.421,9.845c-0.523-0.151-1.071-0.239-1.63-0.238C22.458,60.84,23.978,57.515,25.581,54.226z
		 M21.458,152.36c1.292,1.335,2.678,2.614,4.121,3.846c-0.216,0.279-0.399,0.579-0.554,0.894
		C23.739,155.595,22.525,154.031,21.458,152.36z M58.53,152.227c-1.656-2.162-2.907-4.549-3.693-7.156
		c-0.019-0.192-0.082-0.384-0.186-0.576c-0.242-0.897-0.433-1.818-0.555-2.77c2.716,3.692,4.899,7.804,6.924,11.96
		C60.147,153.286,59.319,152.796,58.53,152.227z"/>
	<path d="M117.444,63.861c3.635-14.682,13.549-24.817,20.751-38.058c1.171-2.153,0.711-5.501-1.741-6.64
		c-4.483-2.083-8.512-4.394-12.994-6.109c-1.357-2.893-5.453-4.792-8.589-1.966c-5.545,4.997-11.599,11.406-16.436,18.566
		c-6.414,7.868-11.02,17.418-12.55,26.604c-0.181,1.088,0.007,2.191,0.433,3.197c-0.231,0.401-0.463,0.797-0.695,1.199
		c-1.171,2.029-0.504,4.756,1.555,5.931c24.414,13.92,34.513,36.586,33.794,60.468c-1.236,3.484-1.55,7.247-1.079,11.03
		c-1.976,12.018-6.501,24.052-13.184,35.166c-1.502,2.497-0.942,4.834,0.524,6.418c0.384,1.25,1.393,2.307,3.207,2.717
		c38.922,8.792,78.079-9.835,82.302-52.301C196.672,90.567,155.508,57.265,117.444,63.861z M132.251,173.671
		c0.137-0.129,0.259-0.271,0.394-0.403c3.573-0.277,6.839-1.281,9.614-2.896c0.032,0.138,0.053,0.265,0.086,0.404
		c0.09,0.381,0.284,0.67,0.439,0.996C139.35,172.645,135.827,173.294,132.251,173.671z M159.858,99.378
		c-0.369,0.677-0.693,1.357-1.019,2.038c-0.026-0.19-0.03-0.386-0.059-0.576c0.049-1.406,0.297-2.855,0.679-4.332
		c0.041,0.028,0.087,0.052,0.128,0.08c0.196,0.814,0.356,1.644,0.481,2.489C160.003,99.181,159.919,99.268,159.858,99.378z
		 M178.453,141.992c0.015-0.928,0-1.863-0.033-2.804c0.61-1.036,1.172-2.099,1.65-3.199
		C179.678,138.09,179.107,140.07,178.453,141.992z"/>
</g>
</svg>